<svg width="720" height="278" viewBox="0 0 720 278" fill="none" xmlns="http://www.w3.org/2000/svg">
   <path d="M-80 277.56C-80 56.64 99.0867 -122.44 320 -122.44C540.913 -122.44 720 56.64 720 277.56"
      fill="url(#paint0_radial_260_395)" />
   <path
      d="M531.64 276.94C532.036 277.336 532.573 277.559 533.133 277.56H543.733C544.294 277.558 544.832 277.334 545.228 276.937C545.624 276.54 545.847 276.001 545.847 275.44V270.28H524.98L531.64 276.94Z"
      fill="#E5EEF4" />
   <path d="M521.6 266.874C521.643 266.932 521.689 266.988 521.74 267.04L524.98 270.28H545.846V266.047H521.6V266.874Z"
      fill="#D4E3ED" />
   <path
      d="M463.373 276.94C462.977 277.336 462.44 277.559 461.88 277.56H451.28C450.719 277.558 450.181 277.334 449.785 276.937C449.389 276.54 449.167 276.001 449.167 275.44V270.28H470.033L463.373 276.94Z"
      fill="#E5EEF4" />
   <path
      d="M473.413 266.874C473.371 266.932 473.324 266.988 473.273 267.04L470.033 270.28H449.167V266.047H473.413V266.874Z"
      fill="#D4E3ED" />
   <path
      d="M544.907 153.854H449.82C444.698 153.854 440.547 158.005 440.547 163.127V258.214C440.547 263.335 444.698 267.487 449.82 267.487H544.907C550.028 267.487 554.18 263.335 554.18 258.214V163.127C554.18 158.005 550.028 153.854 544.907 153.854Z"
      fill="#EFF5F9" />
   <path
      d="M534.613 169.827C535.565 169.827 536.478 170.204 537.152 170.877C537.826 171.549 538.205 172.462 538.207 173.413V247.92C538.205 248.872 537.826 249.784 537.152 250.457C536.478 251.129 535.565 251.507 534.613 251.507H460.113C459.162 251.507 458.249 251.129 457.575 250.457C456.901 249.784 456.522 248.872 456.52 247.92V173.413C456.522 172.462 456.901 171.549 457.575 170.877C458.249 170.204 459.162 169.827 460.113 169.827H534.613ZM534.613 167.753H460.113C459.37 167.753 458.633 167.898 457.945 168.182C457.258 168.466 456.633 168.883 456.107 169.409C455.581 169.934 455.163 170.559 454.878 171.246C454.593 171.933 454.447 172.67 454.447 173.413V247.92C454.447 249.423 455.044 250.864 456.107 251.927C457.169 252.99 458.611 253.587 460.113 253.587H534.613C536.116 253.585 537.556 252.987 538.618 251.925C539.681 250.863 540.278 249.422 540.28 247.92V173.413C540.278 171.912 539.681 170.472 538.618 169.411C537.556 168.35 536.115 167.753 534.613 167.753Z"
      fill="#E5EEF4" />
   <path d="M457.327 177.927H452.973V189.907H457.327V177.927Z" fill="#D4E3ED" />
   <path d="M457.327 184.62H452.973V185.727H457.327V184.62Z" fill="#EFF5F9" />
   <path d="M457.327 231.48H452.973V243.46H457.327V231.48Z" fill="#D4E3ED" />
   <path d="M457.327 238.167H452.973V239.274H457.327V238.167Z" fill="#EFF5F9" />
   <path
      d="M521.6 218.167C525.617 218.167 528.873 214.91 528.873 210.893C528.873 206.877 525.617 203.62 521.6 203.62C517.583 203.62 514.327 206.877 514.327 210.893C514.327 214.91 517.583 218.167 521.6 218.167Z"
      fill="#D4E3ED" />
   <path
      d="M521.6 215.593C524.196 215.593 526.3 213.489 526.3 210.893C526.3 208.298 524.196 206.193 521.6 206.193C519.004 206.193 516.9 208.298 516.9 210.893C516.9 213.489 519.004 215.593 521.6 215.593Z"
      fill="#E5EEF4" />
   <path d="M523.667 210.894H519.52V229.567H523.667V210.894Z" fill="#B9D1E1" />
   <path
      d="M485.92 230.1C496.822 230.1 505.66 221.262 505.66 210.36C505.66 199.458 496.822 190.62 485.92 190.62C475.018 190.62 466.18 199.458 466.18 210.36C466.18 221.262 475.018 230.1 485.92 230.1Z"
      fill="#E5EEF4" />
   <path
      d="M485.92 223.873C493.383 223.873 499.433 217.823 499.433 210.36C499.433 202.897 493.383 196.847 485.92 196.847C478.457 196.847 472.406 202.897 472.406 210.36C472.406 217.823 478.457 223.873 485.92 223.873Z"
      fill="#D4E3ED" />
   <path
      d="M485.92 217.927C490.099 217.927 493.487 214.539 493.487 210.36C493.487 206.181 490.099 202.793 485.92 202.793C481.741 202.793 478.353 206.181 478.353 210.36C478.353 214.539 481.741 217.927 485.92 217.927Z"
      fill="#E5EEF4" />
   <path d="M485.827 195.807L486.753 192.58H484.86L485.827 195.807Z" fill="#B9D1E1" />
   <path d="M497.36 209.974H495.06V210.754H497.36V209.974Z" fill="#B9D1E1" />
   <path d="M476.78 209.974H474.48V210.754H476.78V209.974Z" fill="#B9D1E1" />
   <path d="M486.313 198.7H485.533V201H486.313V198.7Z" fill="#B9D1E1" />
   <path d="M491.394 200.174L490.111 202.083L490.758 202.518L492.042 200.61L491.394 200.174Z" fill="#B9D1E1" />
   <path d="M495.693 204.245L493.686 205.369L494.067 206.05L496.074 204.926L495.693 204.245Z" fill="#B9D1E1" />
   <path d="M480.444 200.204L479.797 200.639L481.08 202.548L481.727 202.113L480.444 200.204Z" fill="#B9D1E1" />
   <path d="M476.116 204.155L475.735 204.836L477.742 205.96L478.123 205.279L476.116 204.155Z" fill="#B9D1E1" />
   <path d="M486.313 219.727H485.533V222.027H486.313V219.727Z" fill="#B9D1E1" />
   <path d="M481.094 218.265L479.811 220.173L480.458 220.609L481.741 218.7L481.094 218.265Z" fill="#B9D1E1" />
   <path d="M477.763 214.734L475.756 215.858L476.137 216.538L478.144 215.415L477.763 214.734Z" fill="#B9D1E1" />
   <path d="M490.746 218.28L490.099 218.715L491.382 220.624L492.029 220.189L490.746 218.28Z" fill="#B9D1E1" />
   <path d="M494.086 214.746L493.705 215.426L495.711 216.55L496.093 215.87L494.086 214.746Z" fill="#B9D1E1" />
   <path
      d="M199.387 120.707H170L177.473 125.76V268.18L167.513 277.56H199.393C200.199 277.558 200.97 277.237 201.539 276.667C202.107 276.097 202.427 275.325 202.427 274.52V123.74C202.427 123.341 202.348 122.946 202.195 122.578C202.042 122.209 201.818 121.874 201.536 121.593C201.254 121.311 200.918 121.088 200.55 120.936C200.181 120.784 199.786 120.706 199.387 120.707Z"
      fill="#E5EEF4" />
   <path
      d="M175.48 120.707H85.3269C84.2334 120.707 83.3469 121.593 83.3469 122.687V275.58C83.3469 276.673 84.2334 277.56 85.3269 277.56H175.48C176.574 277.56 177.46 276.673 177.46 275.58V122.687C177.46 121.593 176.574 120.707 175.48 120.707Z"
      fill="#F6F9FC" />
   <path d="M167.5 192.553H136.906V219.093H167.5V192.553Z" fill="#D4E3ED" />
   <path d="M154.707 205.26H134.753V206.394H154.707V205.26Z" fill="#8EB3CE" />
   <path d="M154.707 211.78H134.753V212.914H154.707V211.78Z" fill="#8EB3CE" />
   <path
      d="M140.16 179.167H69.9732C68.8796 179.167 67.9932 180.053 67.9932 181.146V217.113C67.9932 218.207 68.8796 219.093 69.9732 219.093H140.16C141.253 219.093 142.14 218.207 142.14 217.113V181.146C142.14 180.053 141.253 179.167 140.16 179.167Z"
      fill="#E5EEF4" />
   <path d="M113.533 197.62H96.5935V200.633H113.533V197.62Z" fill="#8EB3CE" />
   <path
      d="M165.527 130.66H95.3401C94.2466 130.66 93.3601 131.547 93.3601 132.64V168.607C93.3601 169.7 94.2466 170.587 95.3401 170.587H165.527C166.62 170.587 167.507 169.7 167.507 168.607V132.64C167.507 131.547 166.62 130.66 165.527 130.66Z"
      fill="#E5EEF4" />
   <path d="M138.9 149.12H121.96V152.133H138.9V149.12Z" fill="#8EB3CE" />
   <path
      d="M165.527 227.673H95.3401C94.2466 227.673 93.3601 228.56 93.3601 229.653V265.62C93.3601 266.714 94.2466 267.6 95.3401 267.6H165.527C166.62 267.6 167.507 266.714 167.507 265.62V229.653C167.507 228.56 166.62 227.673 165.527 227.673Z"
      fill="#E5EEF4" />
   <path d="M138.9 246.127H121.96V249.14H138.9V246.127Z" fill="#8EB3CE" />
   <path
      d="M205.9 68.6136L197 54.3936L142.046 89.0002C140.817 89.7769 139.945 91.0086 139.62 92.4262C139.295 93.8438 139.544 95.3323 140.313 96.5669L194.98 184.46C195.358 185.07 195.852 185.599 196.436 186.017C197.019 186.435 197.679 186.733 198.378 186.895C199.077 187.057 199.801 187.079 200.508 186.959C201.216 186.84 201.892 186.582 202.5 186.2L272.333 142.247C273.563 141.47 274.435 140.239 274.76 138.821C275.085 137.403 274.835 135.915 274.066 134.68L228.346 61.1469L215.466 69.2536C212.84 70.9069 207.546 71.2602 205.9 68.6136Z"
      fill="#FEECB2" />
   <path
      d="M205.553 68.1469C205.981 68.8403 206.541 69.4424 207.202 69.9185C207.863 70.3947 208.611 70.7355 209.404 70.9213C210.197 71.1072 211.019 71.1345 211.823 71.0016C212.626 70.8687 213.396 70.5782 214.087 70.1469L228.347 61.1669L197.013 54.4136L205.553 68.1469Z"
      fill="#FDC920" />
   <path
      d="M207.193 139.38C220.249 139.38 230.833 128.736 230.833 115.607C230.833 102.477 220.249 91.8335 207.193 91.8335C194.137 91.8335 183.553 102.477 183.553 115.607C183.553 128.736 194.137 139.38 207.193 139.38Z"
      fill="#FDC920" />
   <path
      d="M214.7 109.447L198.86 110.014C198.615 110.024 198.377 110.099 198.169 110.23C197.962 110.362 197.793 110.545 197.678 110.762C197.564 110.979 197.508 111.222 197.516 111.468C197.525 111.713 197.597 111.952 197.727 112.16L206.133 125.667C206.264 125.874 206.447 126.044 206.663 126.159C206.88 126.273 207.123 126.329 207.368 126.32C207.613 126.311 207.852 126.239 208.06 126.109C208.268 125.979 208.438 125.797 208.553 125.58L216 111.507C216.117 111.289 216.174 111.043 216.165 110.796C216.156 110.548 216.082 110.308 215.95 110.098C215.818 109.889 215.633 109.718 215.413 109.604C215.193 109.489 214.947 109.435 214.7 109.447Z"
      fill="#FE8D00" />
   <path
      d="M287.553 155H307.367C308.974 155.001 310.556 155.402 311.97 156.167C313.384 156.931 314.586 158.036 315.467 159.38L324.413 173C325.294 174.345 326.496 175.449 327.91 176.214C329.324 176.979 330.906 177.379 332.513 177.38H399.333L393.267 243.013L402.927 258.12H271.14C269.967 258.117 268.806 257.882 267.723 257.43C266.641 256.978 265.658 256.317 264.831 255.485C264.004 254.653 263.349 253.666 262.903 252.581C262.457 251.496 262.23 250.333 262.233 249.16V163.98C262.226 162.805 262.451 161.64 262.896 160.552C263.34 159.464 263.994 158.475 264.822 157.64C265.649 156.806 266.633 156.143 267.718 155.69C268.802 155.237 269.965 155.003 271.14 155H287.553Z"
      fill="#FD9F00" />
   <path
      d="M401.354 177.407H397.307C392.082 177.407 387.847 181.642 387.847 186.867V268.093C387.847 273.318 392.082 277.553 397.307 277.553H401.354C406.578 277.553 410.814 273.318 410.814 268.093V186.867C410.814 181.642 406.578 177.407 401.354 177.407Z"
      fill="#FD9F00" />
   <path
      d="M393.473 177.407H389.427C384.202 177.407 379.967 181.642 379.967 186.867V268.093C379.967 273.318 384.202 277.553 389.427 277.553H393.473C398.698 277.553 402.933 273.318 402.933 268.093V186.867C402.933 181.642 398.698 177.407 393.473 177.407Z"
      fill="#FD9F00" />
   <path
      d="M387.847 266.007V253.513C387.851 251.504 388.379 249.53 389.377 247.786C390.375 246.042 391.81 244.588 393.54 243.567V192.233C393.547 190.838 393.279 189.455 392.751 188.163C392.223 186.871 391.445 185.697 390.462 184.706C389.48 183.715 388.311 182.928 387.024 182.389C385.737 181.851 384.356 181.571 382.96 181.567H321.334C319.423 181.565 317.543 181.088 315.862 180.18C314.182 179.271 312.754 177.958 311.707 176.36L301.08 160.18C300.032 158.59 298.606 157.284 296.929 156.38C295.253 155.476 293.378 155.002 291.474 155H248.427C247.031 155.003 245.65 155.282 244.362 155.821C243.074 156.359 241.906 157.146 240.923 158.137C239.94 159.128 239.162 160.303 238.634 161.595C238.107 162.887 237.839 164.271 237.847 165.667V266.913C237.84 268.309 238.108 269.692 238.636 270.984C239.164 272.275 239.942 273.45 240.925 274.441C241.907 275.432 243.076 276.219 244.363 276.757C245.651 277.296 247.031 277.576 248.427 277.58H393.64V276.04C391.879 275.024 390.416 273.561 389.399 271.8C388.382 270.039 387.846 268.041 387.847 266.007Z"
      fill="#FE8D00" />
   <path
      d="M472.927 131.733L479.014 116.087L418.707 92.1599C418.039 91.8959 417.326 91.7665 416.608 91.7792C415.89 91.7919 415.181 91.9464 414.523 92.2339C413.865 92.5214 413.271 92.9362 412.774 93.4543C412.277 93.9725 411.887 94.5839 411.627 95.2533L373.813 191.707C373.28 193.059 373.303 194.567 373.879 195.902C374.455 197.236 375.537 198.288 376.887 198.827L453.52 229.227C454.188 229.49 454.901 229.618 455.619 229.605C456.337 229.592 457.045 229.437 457.702 229.15C458.36 228.863 458.955 228.448 459.452 227.931C459.949 227.413 460.34 226.802 460.6 226.133L492.227 145.467L478.1 139.86C475.214 138.713 471.787 134.633 472.927 131.733Z"
      fill="#FEECB2" />
   <path
      d="M473.093 131.18C472.489 132.714 472.517 134.424 473.17 135.937C473.824 137.449 475.05 138.642 476.58 139.254L492.227 145.46L479.013 116.087L473.093 131.18Z"
      fill="#FDC920" />
   <path
      d="M433.453 166.333L452.787 156.913L460.32 176.6L469.747 152.553C470.119 151.611 470.103 150.559 469.702 149.628C469.301 148.698 468.547 147.963 467.607 147.587L422 129.54C421.534 129.355 421.037 129.263 420.536 129.271C420.035 129.28 419.54 129.387 419.081 129.587C418.622 129.787 418.207 130.076 417.86 130.438C417.513 130.799 417.241 131.226 417.06 131.693L402.513 168.8C402.281 169.391 402.198 170.03 402.273 170.66L429.927 157.16L433.453 166.333Z"
      fill="#FDC920" />
   <path d="M404.353 173.667L404.653 173.807L412.167 176.787H412.22L404.353 173.667Z" fill="#FDC920" />
   <path d="M412.167 176.753L450.227 191.847C450.551 191.977 450.892 192.06 451.24 192.093L412.167 176.753Z"
      fill="#FDC920" />
   <path
      d="M433.453 166.333L429.927 157.133L402.273 170.633C402.347 171.262 402.575 171.863 402.938 172.382C403.301 172.901 403.788 173.322 404.353 173.607L412.22 176.7L433.453 166.333Z"
      fill="#FDB200" />
   <path
      d="M455.167 189.667L460.287 176.6L452.753 156.914L433.42 166.334L441.853 188.334L412.187 176.687H412.133L451.207 192.02C452.033 192.116 452.868 191.937 453.584 191.512C454.299 191.087 454.855 190.439 455.167 189.667Z"
      fill="#FE8D00" />
   <path d="M441.887 188.373L433.453 166.36L412.22 176.727L441.887 188.373Z" fill="#FE8D00" />
   <path
      d="M426.293 148.486C425.001 147.968 423.966 146.962 423.412 145.685C422.858 144.408 422.829 142.964 423.333 141.667C423.584 141.026 423.959 140.442 424.436 139.947C424.913 139.451 425.483 139.055 426.113 138.78C426.743 138.505 427.422 138.357 428.109 138.345C428.797 138.332 429.48 138.455 430.12 138.707C431.41 139.226 432.444 140.234 432.994 141.511C433.545 142.789 433.569 144.232 433.06 145.526C432.553 146.814 431.556 147.849 430.288 148.404C429.02 148.959 427.583 148.988 426.293 148.486Z"
      fill="#FEDF80" />
   <path
      d="M387.947 259.76L387.847 259.607V192.273C387.855 190.878 387.587 189.494 387.059 188.202C386.531 186.91 385.754 185.735 384.771 184.744C383.788 183.753 382.619 182.966 381.331 182.427C380.044 181.889 378.663 181.61 377.267 181.607H315.667C313.756 181.605 311.875 181.128 310.194 180.217C308.514 179.307 307.086 177.993 306.04 176.393L295.407 160.213C294.361 158.614 292.933 157.299 291.253 156.389C289.572 155.479 287.691 155.002 285.78 155H242.733C241.338 155.003 239.956 155.282 238.669 155.821C237.381 156.359 236.212 157.146 235.229 158.137C234.247 159.128 233.469 160.303 232.941 161.595C232.413 162.887 232.146 164.271 232.153 165.667V220.507C258.002 245.66 292.64 259.742 328.707 259.76H387.947Z"
      fill="#FDC000" />
   <path
      d="M242.733 277.56H399.333L387.947 259.76H328.707C292.64 259.742 258.002 245.66 232.153 220.507V266.913C232.149 268.307 232.419 269.688 232.948 270.978C233.478 272.267 234.256 273.439 235.238 274.428C236.221 275.417 237.388 276.202 238.674 276.74C239.96 277.277 241.34 277.556 242.733 277.56Z"
      fill="#FDB200" />
   <path
      d="M399.333 241.967C397.293 241.969 395.292 242.522 393.54 243.567V259.607L393.64 259.76V276.02C395.369 277.027 397.333 277.558 399.333 277.56C402.385 277.541 405.305 276.315 407.455 274.15C409.606 271.986 410.813 269.058 410.813 266.007V253.513C410.813 250.463 409.606 247.536 407.455 245.372C405.304 243.209 402.384 241.984 399.333 241.967Z"
      fill="#FD9F00" />
   <path
      d="M393.54 259.606V243.566C391.81 244.588 390.375 246.042 389.377 247.786C388.379 249.53 387.851 251.504 387.847 253.513V266.006C387.852 268.035 388.39 270.026 389.407 271.781C390.424 273.536 391.883 274.993 393.64 276.007V259.76L393.54 259.606Z"
      fill="#FE8D00" />
   <path d="M311.293 206.3H248.993V210.207H311.293V206.3Z" fill="#FD9F00" />
   <path d="M281.933 222.373H248.993V226.28H281.933V222.373Z" fill="#FD9F00" />
   <path
      d="M365.9 18.7532L366.926 1.97987L302.26 -2.20012C301.543 -2.2453 300.824 -2.14864 300.144 -1.9157C299.464 -1.68276 298.837 -1.31809 298.298 -0.84256C297.76 -0.367028 297.32 0.210027 297.005 0.855621C296.689 1.50122 296.504 2.20268 296.46 2.91987L289.846 106.387C289.749 107.835 290.231 109.263 291.186 110.357C292.141 111.451 293.491 112.121 294.94 112.22L377.153 117.553C378.601 117.641 380.024 117.15 381.111 116.189C382.197 115.227 382.857 113.874 382.946 112.427L388.48 25.8865L373.32 24.9065C370.2 24.6932 365.7 21.8665 365.9 18.7532Z"
      fill="#FEECB2" />
   <path
      d="M365.887 18.1733C365.779 19.8162 366.326 21.4349 367.41 22.6745C368.493 23.9142 370.024 24.6737 371.667 24.7866L388.453 25.8733L366.927 1.97998L365.887 18.1733Z"
      fill="#FDC920" />
   <path
      d="M332.62 60.2736C332.313 65.1536 329.56 68.0803 325.713 67.8336C324.72 67.8111 323.754 67.5064 322.927 66.9551C322.101 66.4038 321.449 65.6286 321.047 64.7203H320.973L320.513 72.3336L317.36 72.127L318.693 51.6069L321.74 51.8069L321.573 54.4736H321.627C322.141 53.6082 322.89 52.9061 323.786 52.4483C324.683 51.9906 325.691 51.796 326.693 51.8869C330.567 52.1469 332.933 55.3936 332.62 60.2736ZM329.387 60.0603C329.593 56.8403 328.167 54.6669 325.673 54.5069C323.18 54.3469 321.52 56.3603 321.313 59.5403C321.107 62.7203 322.58 64.9336 325 65.0936C327.42 65.2536 329.18 63.3003 329.387 60.0603Z"
      fill="#FD9F00" />
   <path
      d="M334.353 60.38C334.667 55.52 337.427 52.5933 341.273 52.84C342.268 52.8637 343.235 53.1704 344.062 53.7242C344.888 54.2779 345.54 55.0558 345.94 55.9667H345.993L346.527 47.6733L349.687 47.88L348.353 69.0267L345.293 68.8267L345.467 66.2067H345.333C344.817 67.0696 344.068 67.769 343.171 68.2243C342.275 68.6797 341.268 68.8723 340.267 68.78C336.407 68.52 334.047 65.2467 334.353 60.38ZM337.573 60.5933C337.367 63.8467 338.793 65.98 341.287 66.1467C343.78 66.3133 345.453 64.34 345.66 61.1133C345.867 57.8867 344.387 55.72 341.967 55.56C339.547 55.4 337.78 57.3533 337.573 60.5933Z"
      fill="#FD9F00" />
   <path
      d="M353.266 56.3801L351.153 56.2467L351.313 53.7667L353.426 53.9067L353.52 52.3934C353.713 49.4067 355.2 48.0867 358.32 48.2934C358.91 48.3332 359.496 48.4202 360.073 48.5534L359.92 50.8934C359.545 50.8089 359.164 50.7553 358.78 50.7334C357.406 50.6467 356.72 51.2934 356.633 52.6534L356.54 54.1067L359.646 54.3067L359.486 56.7867L356.426 56.5867L355.6 69.5001L352.44 69.2934L353.266 56.3801Z"
      fill="#FD9F00" />
   <defs>
      <radialGradient id="paint0_radial_260_395" cx="0" cy="0" r="1" gradientUnits="userSpaceOnUse"
         gradientTransform="translate(317.813 277.88) scale(379.287)">
         <stop stop-color="#F6F9FC" />
         <stop offset="1" stop-color="white" stop-opacity="0" />
      </radialGradient>
   </defs>
</svg>