<svg width="800" height="401" viewBox="0 0 800 401" fill="none" xmlns="http://www.w3.org/2000/svg">
   <path d="M0 400.173C0 179.26 179.087 0.17334 400 0.17334C620.913 0.17334 800 179.26 800 400.173"
      fill="url(#paint0_radial_260_490)" />
   <path
      d="M525.547 305.887C525.549 297.089 529 288.643 535.16 282.362C541.32 276.081 549.698 272.466 558.493 272.293C577.327 271.933 592.747 287.713 592.747 306.553V331.14H581.613V305.887C581.512 299.977 579.093 294.343 574.877 290.2C570.662 286.056 564.988 283.734 559.077 283.734C553.166 283.734 547.492 286.056 543.276 290.2C539.061 294.343 536.642 299.977 536.54 305.887V306L536.434 331.113H525.333L525.547 305.887Z"
      fill="#E5EEF4" />
   <path
      d="M555.106 363.2C553.043 362.303 551.351 360.723 550.317 358.726C549.282 356.728 548.967 354.435 549.425 352.232C549.882 350.03 551.085 348.052 552.83 346.632C554.576 345.212 556.757 344.437 559.006 344.437C561.256 344.437 563.437 345.212 565.182 346.632C566.928 348.052 568.13 350.03 568.588 352.232C569.046 354.435 568.731 356.728 567.696 358.726C566.661 360.723 564.97 362.303 562.906 363.2L567.46 387.787C567.495 387.981 567.487 388.18 567.436 388.371C567.386 388.561 567.293 388.738 567.165 388.889C567.038 389.039 566.878 389.16 566.699 389.241C566.519 389.323 566.324 389.363 566.126 389.36H551.86C551.662 389.363 551.467 389.323 551.287 389.241C551.108 389.16 550.948 389.039 550.821 388.889C550.693 388.738 550.601 388.561 550.55 388.371C550.499 388.18 550.491 387.981 550.526 387.787L555.106 363.2Z"
      fill="#030091" />
   <path
      d="M555.106 363.2C553.043 362.303 551.351 360.723 550.317 358.726C549.282 356.728 548.967 354.435 549.425 352.232C549.882 350.03 551.085 348.052 552.83 346.632C554.576 345.212 556.757 344.437 559.006 344.437C561.256 344.437 563.437 345.212 565.182 346.632C566.928 348.052 568.13 350.03 568.588 352.232C569.046 354.435 568.731 356.728 567.696 358.726C566.661 360.723 564.97 362.303 562.906 363.2L567.46 387.787C567.495 387.981 567.487 388.18 567.436 388.371C567.386 388.561 567.293 388.738 567.165 388.889C567.038 389.039 566.878 389.16 566.699 389.241C566.519 389.323 566.324 389.363 566.126 389.36H551.86C551.662 389.363 551.467 389.323 551.287 389.241C551.108 389.16 550.948 389.039 550.821 388.889C550.693 388.738 550.601 388.561 550.55 388.371C550.499 388.18 550.491 387.981 550.526 387.787L555.106 363.2Z"
      fill="#D4E3ED" />
   <path
      d="M516.066 332.467V384.713C516.066 388.904 517.731 392.923 520.694 395.886C523.657 398.849 527.676 400.513 531.866 400.513H586.18C590.37 400.513 594.389 398.849 597.352 395.886C600.315 392.923 601.98 388.904 601.98 384.713V332.467C601.98 332.113 601.839 331.774 601.589 331.524C601.339 331.274 601 331.133 600.646 331.133H517.393C517.041 331.135 516.703 331.276 516.455 331.526C516.206 331.776 516.066 332.114 516.066 332.467ZM555.12 363.2C553.055 362.303 551.363 360.721 550.327 358.722C549.292 356.724 548.977 354.429 549.435 352.225C549.893 350.021 551.097 348.042 552.843 346.621C554.589 345.2 556.772 344.425 559.023 344.425C561.274 344.425 563.457 345.2 565.203 346.621C566.95 348.042 568.153 350.021 568.611 352.225C569.07 354.429 568.754 356.724 567.719 358.722C566.684 360.721 564.991 362.303 562.926 363.2L567.473 387.787C567.509 387.981 567.501 388.18 567.45 388.371C567.399 388.561 567.306 388.738 567.179 388.889C567.051 389.039 566.892 389.16 566.712 389.241C566.532 389.323 566.337 389.363 566.14 389.36H551.88C551.682 389.363 551.487 389.323 551.307 389.241C551.128 389.16 550.968 389.039 550.841 388.889C550.713 388.738 550.621 388.561 550.57 388.371C550.519 388.18 550.511 387.981 550.546 387.787L555.12 363.2Z"
      fill="#EFF5F9" />
   <path d="M525.3 331.14H536.433L536.473 321.393L525.3 331.14Z" fill="#D4E3ED" />
   <path
      d="M582.04 281.633L573.78 288.847C576.236 290.955 578.208 293.569 579.56 296.51C580.912 299.451 581.613 302.65 581.614 305.887V331.14H592.747V306.553C592.736 301.892 591.782 297.281 589.942 292.998C588.102 288.716 585.414 284.85 582.04 281.633Z"
      fill="#D4E3ED" />
   <path
      d="M340.453 289.413H179.473C175.166 289.413 171.673 292.906 171.673 297.213V392.713C171.673 397.021 175.166 400.513 179.473 400.513H340.453C344.761 400.513 348.253 397.021 348.253 392.713V297.213C348.253 292.906 344.761 289.413 340.453 289.413Z"
      fill="#EFF5F9" />
   <path d="M348.253 314.007H171.673V334.233H348.253V314.007Z" fill="#D4E3ED" />
   <path
      d="M223.753 359.053H199C195.771 359.053 193.153 361.671 193.153 364.9V378.253C193.153 381.482 195.771 384.1 199 384.1H223.753C226.982 384.1 229.6 381.482 229.6 378.253V364.9C229.6 361.671 226.982 359.053 223.753 359.053Z"
      fill="#E5EEF4" />
   <path d="M326.407 364.807H269.86V368.213H326.407V364.807Z" fill="#D4E3ED" />
   <path d="M298.133 374.94H269.86V378.347H298.133V374.94Z" fill="#D4E3ED" />
   <path
      d="M404.207 144.42H395.793L396.973 149.893C357.307 177.94 299.447 189.28 299.447 189.28V258.474C299.447 346.42 376.907 387.88 398.613 397.773L395.793 400.16H404.207C404.207 400.16 508.967 360.747 508.967 258.474V189.28C508.967 189.28 443.62 176.474 404.207 144.42Z"
      fill="#008F68" />
   <path
      d="M395.793 144.42C356.373 176.474 291.033 189.28 291.033 189.28V258.474C291.033 360.747 395.793 400.16 395.793 400.16C395.793 400.16 500.553 360.747 500.553 258.474V189.28C500.553 189.28 435.207 176.474 395.793 144.42Z"
      fill="#00AD87" />
   <path
      d="M302.9 314.667C330.327 375.507 395.793 400.133 395.793 400.133C395.793 400.133 500.553 360.72 500.553 258.447V189.28C500.553 189.28 468.213 182.94 435.333 168L302.9 314.667Z"
      fill="#0DBC9C" />
   <path
      d="M395.847 370.547C382.885 363.958 370.793 355.784 359.847 346.213C332.08 321.72 318 292.2 318 258.473V210.38C338.24 204.687 369.127 194.173 395.793 177.447C422.46 194.173 453.347 204.687 473.587 210.38V258.473C473.587 324.46 418.5 359.1 395.847 370.547Z"
      fill="#F6F9FC" />
   <path
      d="M359.84 346.2C370.786 355.771 382.879 363.944 395.84 370.533C418.507 359.087 473.58 324.453 473.58 258.467V210.367C458.427 206.107 437.3 199.14 416.453 188.887L323.12 292.22C329.52 312.207 341.78 330.267 359.84 346.2Z"
      fill="white" />
   <path
      d="M365.473 346.213C337.707 321.72 323.633 292.213 323.633 258.473V210.38C343.167 204.887 372.607 194.88 398.607 179.16C397.667 178.593 396.72 178.033 395.793 177.447C369.127 194.173 338.24 204.687 318 210.38V258.473C318 292.2 332.08 321.72 359.84 346.213C370.786 355.784 382.879 363.958 395.84 370.547C396.727 370.1 397.68 369.6 398.667 369.08C386.756 362.765 375.618 355.092 365.473 346.213Z"
      fill="#D4E3ED" />
   <path d="M389.22 298.5L359.413 270.947L369.186 260.373L387.84 277.613L425.633 232.093L436.713 241.293L389.22 298.5Z"
      fill="#0DBC9C" />
   <defs>
      <radialGradient id="paint0_radial_260_490" cx="0" cy="0" r="1" gradientUnits="userSpaceOnUse"
         gradientTransform="translate(397.813 400.5) scale(379.287)">
         <stop stop-color="#F6F9FC" />
         <stop offset="1" stop-color="white" stop-opacity="0" />
      </radialGradient>
   </defs>
</svg>